<svg xmlns="http://www.w3.org/2000/svg" viewBox="0 0 160 120">
  <rect width="160" height="120" fill="#fdfbf5"/>
  <g stroke="#2b2b2b" stroke-width="3" stroke-linecap="round" stroke-linejoin="round">
    <path d="M9 49L80 9L151 49M19 45V109H141V45" fill="none"/>
    <rect x="107" y="44" width="22" height="25" rx="2" fill="#559dca"/>
    <path d="M118 44V69M107 56H129" fill="none"/>
    <rect x="34" y="66" width="65" height="34" rx="9" fill="#ef786c"/>
    <path d="M57 65Q71 59 85 67L88 86H53Z" fill="#559dca"/>
    <circle cx="71" cy="47" r="13" fill="#efbd95"/>
    <path d="M58 46Q54 29 71 30Q86 29 85 47L75 39L65 46Z" fill="#2b2b2b"/>
    <path d="M61 85L62 99H76M80 85L86 98H96" fill="none" stroke-width="8"/>
    <path d="M54 73L63 81M85 73L78 81" fill="none" stroke="#efbd95" stroke-width="7"/>
    <rect x="29" y="80" width="13" height="22" rx="4" fill="#ef786c"/>
    <rect x="95" y="80" width="13" height="22" rx="4" fill="#ef786c"/>
    <path d="M37 103V109M100 103V109" fill="none"/>
    <path d="M63 79Q70 75 78 79L82 88H59Z" fill="#f2c75c"/>
  </g>
</svg>
