<svg xmlns="http://www.w3.org/2000/svg" viewBox="0 0 160 120">
  <rect width="160" height="120" fill="#fdfbf5"/>
  <g stroke="#2b2b2b" stroke-width="3" stroke-linecap="round" stroke-linejoin="round">
    <path d="M60 33Q58 10 80 10Q102 10 100 33L118 42L144 76L126 89L110 66V108H50V66L34 89L16 76L42 42Z" fill="#df5757"/>
    <path d="M60 33Q80 47 100 33L93 20Q80 13 67 20Z" fill="#fdfbf5"/>
    <path d="M80 42V108M57 80H70V95H57ZM90 80H103V95H90Z" fill="none"/>
    <path d="M18 76L34 88M127 87L142 76M51 101H109" fill="none"/>
    <rect x="76" y="48" width="8" height="12" rx="2" fill="#f2c75c"/>
  </g>
</svg>
