<svg xmlns="http://www.w3.org/2000/svg" viewBox="0 0 160 120">
  <rect width="160" height="120" fill="#fdfbf5"/>
  <g stroke="#2b2b2b" stroke-width="3" stroke-linecap="round" stroke-linejoin="round">
    <path d="M40 17H119Q129 17 129 27V96Q129 105 119 105H40Q29 105 29 94V28Q29 17 40 17Z" fill="#559dca"/>
    <path d="M40 88H128V100H40Q31 100 31 94Q31 88 40 88Z" fill="#fdfbf5"/>
    <path d="M43 18V86" fill="none"/>
    <path d="M102 88V111L94 105L86 111V88Z" fill="#ef786c"/>
    <circle cx="85" cy="51" r="22" fill="#f2c75c"/>
    <path d="M68 60L81 42L90 53L97 46L105 60Z" fill="#559dca"/>
    <circle cx="94" cy="40" r="4" fill="#fdfbf5" stroke="none"/>
  </g>
</svg>
